HIERARCHY
ROOT Hips
{
	OFFSET 0.000000 0.000000 0.000000 
	CHANNELS 6 Xposition Yposition Zposition Yrotation Zrotation Xrotation 
	JOINT Lumbar
	{
		OFFSET 0.000000 0.000000 0.000000 
		CHANNELS 3 Zrotation Xrotation Yrotation
		JOINT Neck
		{
			OFFSET 0.000000 0.445665 0.000000 
			CHANNELS 3 Zrotation Xrotation Yrotation
			End Site
			{
				OFFSET 0.000000 0.227535 0.000000 
			}
		}
		JOINT RightShoulder
		{
			OFFSET 0.019635 0.377685 0.194865 
			CHANNELS 3 Zrotation Xrotation Yrotation
			JOINT RightElbow
			{
				OFFSET 0.000000 -0.243375 0.000000 
				CHANNELS 2 Zrotation Yrotation
				JOINT RightWrist
				{
					OFFSET 0.000000 -0.264825 0.000000 
					CHANNELS 2 Zrotation Xrotation
					End Site
					{
						OFFSET 0.006600 -0.176220 0.000990 
					}
				}
			}
		}
		JOINT LeftShoulder
		{
			OFFSET 0.019635 0.377685 -0.194865 
			CHANNELS 3 Zrotation Xrotation Yrotation
			JOINT LeftElbow
			{
				OFFSET 0.000000 -0.243375 0.000000 
				CHANNELS 2 Zrotation Yrotation
				JOINT LeftWrist
				{
					OFFSET 0.000000 -0.264825 0.000000 
					CHANNELS 2 Zrotation Xrotation
					End Site
					{
						OFFSET 0.006600 -0.176220 -0.000990 
					}
				}
			}
		}
	}
	JOINT RightHip
	{
		OFFSET 0.052140 -0.069960 0.075570 
		CHANNELS 3 Zrotation Xrotation Yrotation
		JOINT RightKnee
		{
			OFFSET 0.000000 -0.402270 0.000000 
			CHANNELS 1 Zrotation
			JOINT RightAnkle
			{
				OFFSET 0.000000 -0.404085 0.000000 
				CHANNELS 3 Zrotation Xrotation Yrotation
				End Site
				{
					OFFSET 0.204105 -0.089430 0.008415 
				}
			}
		}
	}
	JOINT LeftHip
	{
		OFFSET 0.052140 -0.069960 -0.075570 
		CHANNELS 3 Zrotation Xrotation Yrotation
		JOINT LeftKnee
		{
			OFFSET 0.000000 -0.402270 0.000000 
			CHANNELS 1 Zrotation
			JOINT LeftAnkle
			{
				OFFSET 0.000000 -0.404085 0.000000 
				CHANNELS 3 Zrotation Xrotation Yrotation
				End Site
				{
					OFFSET 0.204105 -0.089430 -0.008415 
				}
			}
		}
	}
}
MOTION
Frames: 11
Frame Time: 0.02
0.00041 -0.00023 -8e-05 -176.5303 -30.42393 3.53998 46.99957 -0.89438 -4.20297 -12.48783 2.73083 -0.49043 -20.48821 -7.44001 1.75081 31.74701 97.86802 9.42268 1.16836 -23.99577 6.19213 2.39386 32.56079 -107.292 16.00697 -1.2774 27.86177 -0.53392 -2.25341 -20.21516 -6.86323 -5.07833 -3.34511 32.83487 2.33186 4.18259 -24.07687 -6.47733 1.97385 1.664
0.00104 -0.00016 0.00045 -176.45168 -30.4016 3.51785 46.9905 -0.90742 -4.22225 -12.51412 2.72427 -0.49065 -20.51748 -7.3771 1.31715 31.66543 97.95734 9.43651 1.16782 -24.00322 6.18907 2.4534 32.55196 -107.24231 16.03222 -1.28637 27.87153 -0.56441 -2.42879 -20.21866 -6.85858 -5.07169 -3.34093 32.86883 2.27693 3.93979 -24.08349 -6.47535 2.00271 1.67677
0.00166 -9e-05 0.00099 -176.37322 -30.3793 3.49576 46.98142 -0.92041 -4.24145 -12.5403 2.71774 -0.49087 -20.54659 -7.31374 0.88221 31.584 98.053 9.45214 1.16829 -24.01066 6.18541 2.51473 32.5433 -107.20023 16.05963 -1.29649 27.88127 -0.59485 -2.60379 -20.22216 -6.85394 -5.06505 -3.33675 32.90271 2.22223 3.69805 -24.0901 -6.47339 2.03143 1.68947
0.00228 -2e-05 0.00152 -176.29483 -30.35704 3.4737 46.97237 -0.93341 -4.26067 -12.5665 2.7112 -0.49109 -20.57575 -7.25086 0.44925 31.50263 98.14358 9.46634 1.16798 -24.01808 6.18221 2.57454 32.53452 -107.15223 16.08526 -1.30568 27.891 -0.62525 -2.77865 -20.22565 -6.84931 -5.05843 -3.33258 32.93656 2.16747 3.45606 -24.0967 -6.47142 2.06018 1.70219
0.00291 4e-05 0.00205 -176.21632 -30.33475 3.45159 46.96334 -0.94647 -4.28 -12.59281 2.70462 -0.49132 -20.60513 -7.18885 0.01912 31.42122 98.22407 9.47771 1.1661 -24.02551 6.17996 2.63144 32.52552 -107.09294 16.10764 -1.31313 27.90073 -0.65571 -2.95387 -20.22912 -6.84467 -5.0518 -3.3284 32.97048 2.11246 3.21286 -24.10331 -6.46942 2.08909 1.71499
0.00353 0.00011 0.00258 -176.13797 -30.31244 3.42954 46.95418 -0.95932 -4.29893 -12.61873 2.69821 -0.49154 -20.63367 -7.12274 -0.42554 31.33976 98.35082 9.50208 1.17138 -24.03298 6.17342 2.70188 32.5176 -107.08646 16.14547 -1.32878 27.9105 -0.68608 -3.1284 -20.23269 -6.84003 -5.04516 -3.32422 33.00429 2.05841 2.97417 -24.10992 -6.46754 2.11742 1.72749
0.00415 0.00018 0.00312 -176.05938 -30.2902 3.40741 46.94528 -0.97255 -4.31861 -12.64541 2.69146 -0.49176 -20.66379 -7.06452 -0.84202 31.25836 98.38787 9.50121 1.16279 -24.04034 6.17519 2.74598 32.50749 -106.97624 16.15285 -1.32833 27.92018 -0.7166 -3.30406 -20.23607 -6.83539 -5.03854 -3.32005 33.03826 2.00251 2.72681 -24.11652 -6.46543 2.14686 1.74057
0.00478 0.00025 0.00365 -175.98102 -30.2679 3.38536 46.93614 -0.98547 -4.33763 -12.67138 2.68501 -0.49198 -20.69259 -6.99981 -1.28169 31.17714 98.50119 9.52189 1.16601 -24.04786 6.1699 2.81259 32.49941 -106.95707 16.18707 -1.34193 27.92996 -0.74699 -3.47878 -20.23962 -6.83075 -5.0319 -3.31587 33.0721 1.94826 2.48717 -24.12313 -6.46352 2.17531 1.75313
0.0054 0.00031 0.00418 -175.90286 -30.2455 3.36336 46.92672 -0.99787 -4.35575 -12.69652 2.67899 -0.4922 -20.71926 -6.92387 -1.76145 31.09514 98.73456 9.5761 1.18773 -24.05534 6.15346 2.91414 32.4938 -107.06886 16.25943 -1.3761 27.9398 -0.77721 -3.65208 -20.24338 -6.82613 -5.02525 -3.31169 33.10574 1.89623 2.258 -24.12974 -6.4619 2.20243 1.76499
0.00602 0.00038 0.00473 -175.82331 -30.22358 3.34093 46.91894 -1.01285 -4.37876 -12.72655 2.67068 -0.49243 -20.75664 -6.90265 -2.0459 31.01462 98.35798 9.45903 1.11526 -24.06233 6.19359 2.83706 32.47398 -106.48639 16.12842 -1.30213 27.9491 -0.80834 -3.83273 -20.24593 -6.82146 -5.0187 -3.30754 33.14041 1.83203 1.97172 -24.13633 -6.45873 2.23686 1.78069
0.00665 0.00045 0.00524 -175.74684 -30.20073 3.3195 46.9077 -1.02263 -4.39165 -12.74617 2.6671 -0.49265 -20.77241 -6.77239 -2.71953 30.93294 99.21594 9.6893 1.23354 -24.0708 6.11927 3.12231 32.48413 -107.33004 16.41596 -1.44968 27.95964 -0.83762 -3.99836 -20.25102 -6.81686 -5.0119 -3.30331 33.173 1.79311 1.80393 -24.14298 -6.45878 2.25608 1.78841
